<svg xmlns="http://www.w3.org/2000/svg" xmlns:xlink="http://www.w3.org/1999/xlink" width="117" height="35" viewBox="0 0 117 35">
  <defs>
    <polygon id="ergon-logo-a" points="0 110.51 178.51 110.51 178.51 0 0 0"/>
  </defs>
  <g fill="none" fill-rule="evenodd" transform="translate(1)">
    <mask id="ergon-logo-b" fill="#fff">
      <use xlink:href="#ergon-logo-a"/>
    </mask>
    <g fill="#E5261F" fill-rule="nonzero" mask="url(#ergon-logo-b)">
      <path d="M115.6625,27.91375 C115.6625,26.765 115.57,25.61625 115.38875,24.38 L113.385,10.49 L106.87625,10.49 L109.22,24.9175 C109.3125,25.55875 109.4425,26.1175 109.355,26.7075 C108.89375,29.85375 104.21625,29.57 102.3325,28.88125 L99.3975,10.49 L92.935,10.49 L96.69125,33.2025 C96.69125,33.2025 107.59,33.6425 109.46875,33.6425 C113.37,33.6425 115.6625,31.49 115.6625,27.91375 M80.0875,34.5675 C86.32875,34.5675 90.225,30.5775 90.225,24.24875 C90.225,15.6275 85.22625,10.03375 77.61375,10.03375 C71.33125,10.03375 67.47625,13.9775 67.47625,20.44 C67.47625,28.97375 72.475,34.5675 80.0875,34.5675 M82.1525,17.51125 C83.115,19.89125 83.62125,22.8725 83.62125,25.765 C83.62125,29.02 82.38,30.67125 79.86,30.67125 C77.88875,30.67125 76.465,29.5225 75.54875,27.09 C74.58625,24.71 74.085,21.72875 74.085,18.8825 C74.085,15.58125 75.3675,13.93 77.84125,13.93 C79.86,13.93 81.19,15.0325 82.1525,17.51125 M65.235,34.34 L61.245,9.16 C60.2825,2.8775 56.795,0.13 49.9175,0.13 C47.5325,0.13 44.825,0.54375 40.42125,1.59375 L41.0175,5.31 C43.8625,4.8075 45.975,4.575 48.1275,4.575 C52.75875,4.575 54.22875,5.77 54.91625,10.1275 L55.27875,12.42 C55.0762677,12.3207858 54.8777799,12.2136191 54.68375,12.09875 C51.615,10.4475 50.55875,10.075 48.8625,10.075 C44.5975,10.075 42.02625,13.61 42.02625,19.48375 C42.02625,28.09875 47.485,34.475 54.91625,34.475 C56.5675,34.475 65.235,34.34 65.235,34.34 M55.8325,15.72125 L58.07875,30.16375 C57.5170574,30.2514948 56.9497285,30.2982848 56.38125,30.30375 C53.54,30.30375 51.7025,29.295 50.32625,26.955 C49.27625,25.165 48.63375,22.505 48.63375,19.93875 C48.63375,16.59 49.825,14.98625 52.4375,14.98625 C53.3075,14.98625 54.40875,15.21375 55.8325,15.72125 M41.4875,33.92625 L40.61875,28.42 C38.92125,29.155 37.6325,29.47625 36.26125,29.47625 C34.9725,29.47625 33.60125,29.155 32.40625,28.60625 L29.51875,10.49 L23.05,10.49 L26.81125,34.15375 L33.14,34.15375 L32.77375,31.955 C35.89375,33.92625 37.27,34.52125 38.87375,34.52125 C39.83625,34.52125 40.7525,34.34 41.4875,33.92625 M13.875,34.52125 C18.64125,34.52125 21.30125,32.46125 21.30125,28.7875 C21.30125,23.33375 16.99,20.6275 8.3225,20.6275 L6.71875,20.6275 C6.67125,20.26 6.67125,20.03125 6.67125,19.71125 C6.67125,15.995 8.36875,14.29875 12.1775,14.29875 C14.05625,14.29875 15.2925,14.4375 18.32,15.0325 L17.81875,11.59125 C14.33,10.49 12.405,10.1275 10.1125,10.1275 C3.645,10.1275 0.115,13.5225 0.115,19.7575 C0.115,28.51375 5.70875,34.52125 13.875,34.52125 M15.205,28.6525 C15.205,30.16375 14.33,30.9925 12.68,30.9925 C9.745,30.9925 7.68125,28.42 7.08625,24.06875 L7.7275,24.06875 C12.6325,24.115 15.205,25.71875 15.205,28.6525" transform="matrix(1 0 0 -1 -.115 34.568)"/>
    </g>
  </g>
</svg>
